<?xml version="1.0" standalone="no"?>
<!DOCTYPE svg PUBLIC "-//W3C//DTD SVG 20010904//EN"
 "http://www.w3.org/TR/2001/REC-SVG-20010904/DTD/svg10.dtd">
<svg version="1.0" xmlns="http://www.w3.org/2000/svg"
 width="670.000000pt" height="670.000000pt" viewBox="0 0 670.000000 670.000000"
 preserveAspectRatio="xMidYMid meet">
<metadata>
Created by potrace 1.11, written by Peter Selinger 2001-2013
</metadata>
<g transform="translate(0.000000,670.000000) scale(0.100000,-0.100000)"
fill="#000000" stroke="none">
<path d="M1448 5715 c-30 -10 -75 -37 -135 -81 -22 -16 -23 -16 -23 10 0 29
-31 65 -57 67 -10 1 -25 2 -33 3 -8 1 -32 -4 -54 -11 -21 -7 -66 -15 -100 -18
-169 -15 -259 -36 -290 -68 -24 -24 -46 -75 -54 -126 l-7 -51 -45 31 c-45 30
-139 82 -141 77 0 -2 -1 -30 -2 -64 -2 -50 -8 -69 -34 -110 -113 -170 -108
-263 16 -326 30 -16 64 -28 75 -28 16 0 11 7 -21 35 -70 60 -107 166 -71 202
13 12 22 13 49 4 19 -6 50 -8 69 -5 42 6 127 62 155 101 10 15 47 56 81 90 94
94 185 132 302 127 84 -3 129 -20 146 -52 32 -62 85 -91 210 -117 207 -43 268
-78 317 -180 24 -49 29 -74 30 -135 0 -84 22 -158 58 -207 21 -28 31 -33 67
-33 51 0 92 27 146 100 33 43 40 85 23 134 -20 57 -61 93 -160 141 -49 24
-117 65 -149 92 -77 62 -106 116 -106 198 0 34 -5 76 -11 94 -13 36 -71 80
-139 104 -51 18 -66 18 -112 2z"/>
<path d="M948 5259 l-23 -6 25 -6 c14 -3 50 -11 80 -18 284 -62 521 -225 689
-474 147 -218 221 -439 315 -945 112 -602 243 -894 531 -1186 41 -42 139 -126
205 -178 101 -77 298 -168 415 -191 65 -12 177 -17 232 -10 l58 8 -90 22
c-445 110 -790 367 -925 691 -34 83 -109 341 -215 744 -175 666 -255 896 -368
1065 -163 244 -367 397 -612 460 -89 23 -269 37 -317 24z"/>
<path d="M718 4954 c-2 -1 -32 -5 -68 -8 -82 -8 -237 -49 -293 -78 l-42 -22
75 -17 c41 -10 95 -21 120 -24 25 -4 53 -9 62 -11 38 -11 225 -13 264 -3 38
10 94 50 94 67 0 19 -35 54 -72 73 -33 17 -130 33 -140 23z"/>
<path d="M1055 4697 c14 -189 55 -333 116 -404 47 -55 24 -99 -111 -218 -45
-39 -215 -157 -259 -180 -33 -16 -34 -16 -27 1 17 45 33 133 31 174 -2 37 -8
49 -35 70 -86 66 -94 76 -93 114 1 34 35 93 69 122 8 6 22 30 33 54 33 73 13
189 -40 239 -12 11 -25 21 -28 21 -18 -1 -33 -21 -37 -51 -16 -106 -70 -208
-137 -258 -127 -97 -147 -123 -147 -193 0 -41 32 -95 65 -110 20 -9 23 -15 17
-37 -4 -14 -7 -44 -6 -65 0 -31 6 -44 32 -66 18 -14 32 -35 32 -46 0 -41 22
-95 51 -124 27 -26 79 -48 158 -65 11 -3 31 -7 44 -10 12 -3 43 -6 68 -6 75
-2 115 27 190 139 91 135 143 196 201 233 59 38 87 91 92 172 4 78 -16 122
-87 191 -69 67 -112 140 -164 280 l-33 91 5 -68z"/>
<path d="M4777 4504 c-1 -1 -49 -4 -105 -8 -57 -3 -107 -8 -110 -10 -4 -2 -28
-7 -54 -10 -79 -11 -233 -54 -326 -91 -406 -164 -671 -489 -791 -970 -21 -82
-25 -104 -37 -190 -3 -27 -8 -59 -11 -70 -7 -36 -11 -345 -4 -345 4 0 19 42
35 93 88 294 246 612 419 847 88 119 226 266 312 331 17 13 32 26 35 29 9 11
124 86 180 117 102 56 269 116 385 138 199 37 625 19 860 -36 460 -107 743
-329 972 -766 40 -76 73 -135 73 -132 0 4 -11 44 -24 90 -96 331 -342 613
-680 779 -162 79 -419 156 -586 175 -30 3 -62 8 -70 10 -41 11 -462 28 -473
19z"/>
<path d="M4870 4183 c-298 -41 -546 -163 -770 -381 -72 -70 -200 -226 -200
-245 0 -4 37 25 82 64 302 261 671 426 1043 466 104 12 390 8 465 -5 167 -30
177 -28 60 11 -211 70 -353 95 -535 94 -66 -1 -131 -2 -145 -4z"/>
<path d="M5452 3901 c265 -148 478 -371 612 -638 82 -164 149 -394 163 -565 3
-38 9 -68 13 -68 23 0 36 326 16 410 -3 14 -8 36 -11 49 -55 274 -258 535
-555 712 -63 37 -302 149 -318 149 -4 0 32 -22 80 -49z"/>
<path d="M4698 3745 c-2 -2 -33 -5 -70 -6 -123 -4 -262 -41 -377 -99 -254
-127 -450 -393 -540 -733 -22 -79 -16 -75 47 40 154 281 443 507 747 584 218
55 306 66 518 63 171 -2 230 -7 344 -29 43 -8 85 -15 93 -14 43 2 -246 105
-401 143 -125 30 -151 35 -254 42 -44 3 -85 7 -92 9 -6 2 -13 2 -15 0z"/>
<path d="M487 3378 c-129 -261 -233 -557 -261 -742 -4 -21 -8 -41 -10 -45 -8
-13 -18 -169 -17 -263 5 -453 285 -722 806 -773 111 -11 145 -13 145 -10 0 2
-31 22 -70 45 -181 106 -355 268 -467 435 -146 217 -217 463 -216 740 0 104
14 245 28 295 2 8 7 31 10 50 12 72 74 270 120 383 4 9 5 17 3 17 -3 0 -35
-60 -71 -132z"/>
<path d="M5000 3267 c8 -7 44 -38 80 -67 261 -218 516 -532 700 -862 30 -53
56 -95 58 -93 7 7 -58 250 -87 327 -128 331 -354 575 -622 669 -44 16 -95 31
-112 34 -28 5 -30 4 -17 -8z"/>
<path d="M4341 3069 c8 -4 32 -11 54 -15 85 -13 201 -75 301 -159 232 -195
423 -519 574 -972 49 -147 107 -351 117 -407 15 -91 22 -57 17 84 -5 153 -8
196 -18 275 -3 22 -8 63 -11 90 -4 28 -8 57 -10 65 -2 8 -7 31 -10 50 -13 77
-58 240 -92 330 -140 377 -374 599 -693 656 -54 9 -243 12 -229 3z"/>
<path d="M750 2994 c-75 -102 -108 -164 -142 -264 -47 -137 -43 -283 12 -390
22 -43 80 -123 85 -118 2 2 0 21 -5 43 -16 67 -24 156 -24 250 0 178 30 316
105 484 16 35 28 65 26 67 -1 2 -27 -31 -57 -72z"/>
<path d="M4306 2646 c141 -95 272 -316 347 -586 25 -88 69 -299 81 -380 20
-147 21 -149 41 -460 2 -30 4 -77 5 -105 l2 -50 14 50 c17 59 51 261 62 360
10 101 7 346 -7 447 -50 370 -228 625 -514 733 -88 33 -92 32 -31 -9z"/>
<path d="M4205 2383 c144 -145 239 -338 261 -532 3 -34 10 -61 14 -61 23 0 20
267 -3 341 -49 150 -137 244 -280 298 l-59 21 67 -67z"/>
<path d="M2060 2168 c0 -5 11 -43 25 -83 81 -242 286 -430 526 -484 l39 -9
-22 37 c-12 20 -30 48 -40 63 -26 38 -23 40 18 13 79 -54 206 -85 351 -86 84
0 198 8 253 20 l35 7 -80 44 c-44 24 -93 52 -110 63 l-30 19 35 -7 c19 -4 51
-9 70 -12 19 -2 58 -8 85 -12 44 -6 232 -8 364 -3 52 2 49 11 -5 18 -22 2 -50
6 -64 9 -14 3 -43 7 -65 11 -22 3 -53 8 -70 11 -16 2 -39 6 -50 7 -11 2 -33 6
-50 10 -16 3 -41 8 -55 11 -14 3 -59 11 -100 20 -41 8 -86 17 -100 19 -14 3
-34 7 -45 10 -11 2 -60 14 -110 26 -285 67 -580 168 -741 254 -35 18 -64 29
-64 24z"/>
</g>
</svg>
